<svg id="Layer_1" enable-background="new 0 0 98 98" height="512" viewBox="0 0 98 98" width="512" xmlns="http://www.w3.org/2000/svg"><g><path d="m93.0659 74.7444c-3.5201 5.1691-17.3386 5.153-20.8477 0l-.8267-1.2134-.8267 1.2134c-3.5199 5.1689-17.3376 5.1537-20.8472 0l-.8267-1.2134-.8267 1.2134c-3.5128 5.1583-17.3331 5.1618-20.8472 0l-.8267-1.2134-.8267 1.2134c-3.5128 5.1583-17.3331 5.1618-20.8472 0l-1.6533 1.126c4.0975 6.0166 18.2122 6.2694 23.3271 1.0088 4.8413 4.9782 17.6528 4.9857 22.5005 0 4.8481 4.9843 17.6621 4.9762 22.5005 0 5.1048 5.2482 19.2221 5.0184 23.3276-1.0088z"/><path d="m93.0659 82.2112c-3.5236 5.1742-17.3407 5.1498-20.8477 0l-.8267-1.2139-.8267 1.2139c-3.5236 5.1742-17.3397 5.1506-20.8472 0l-.8267-1.2139-.8267 1.2139c-3.5061 5.1487-17.327 5.1693-20.8472 0l-.8267-1.2139-.8267 1.2139c-3.5128 5.1594-17.3326 5.1625-20.8472 0l-1.6533 1.126c4.1002 6.0206 18.2247 6.2694 23.333 1.0024 4.9601 5.0024 17.5278 5.0033 22.4888 0 4.8408 4.9893 17.6641 4.9873 22.5063.0063 5.1037 5.248 19.2214 5.0203 23.3276-1.0088z"/><path d="m94.7192 90.8045-1.6533-1.126c-3.5199 5.1689-17.338 5.1537-20.8477 0l-.8267-1.2134-.8267 1.2134c-3.5231 5.1735-17.3402 5.1498-20.8472 0l-.8267-1.2134-.8267 1.2134c-3.5199 5.1689-17.3376 5.1537-20.8472 0l-.8267-1.2139-.8267 1.2139c-3.5199 5.1689-17.3376 5.1537-20.8472 0l-1.6533 1.126c4.0972 6.0161 18.2127 6.2699 23.3271 1.0088 4.8409 4.9778 17.6535 4.9859 22.5005 0 4.8466 4.9837 17.6621 4.9771 22.5005 0 2.6592 2.7344 7.4175 3.7383 11.2563 3.7378 4.2734-.0001 9.6884-1.2471 12.0717-4.7466z"/><path d="m90.477 67.728h5.523v2h-5.523z"/><path d="m87.0522 67.7278h-6.1971c-1.9224-7.8546-3.2228-15.7676-3.8754-23.554 1.927.0539 3.5881-.5399 4.9329-1.5696 4.9606 3.8416 12.4409.2699 12.4409-6.147 0-3.3804-2.2095-6.3267-5.3228-7.3457 1.717-4.0201-.2542-8.6885-4.3315-10.2573.4253-1.6523.2905-3.4316-.4019-5.021-.7515-1.7261-2.063-3.0815-3.7354-3.8779-.1265-4.1606-3.5518-7.5063-7.7441-7.5063-4.4253 0-7.6641 3.7155-7.7603 7.2476-3.6968 1.3927-5.7335 5.3567-4.7539 9.165-4.1828 1.5931-6.0082 6.3183-4.3232 10.2505-5.5901 1.8298-7.1401 9.0341-2.8989 12.9678 2.7226 2.5242 6.9479 2.8923 10.0229.5239 1.3369 1.0303 2.9751 1.5889 4.7012 1.5889.0768 0 .1504-.0162.2267-.0184-.6534 7.787-1.9536 15.6995-3.8758 23.5536h-24.4026v-5.6255h5.0815v-8.939h-8.7017v-1.4897h5.5693v-7.4038h-5.5693v-1.4893h5.5693v-7.4038h-31.061v7.4038h5.5698v1.4893h-5.5698v7.4038h5.5698v1.4897h-8.702v8.939h5.0815v5.6255h-10.5913v2h85.0522zm-23.2451-27.1597-.6982-.6865-.7012.6836c-2.3009 2.2438-5.7795 2.0767-7.9663.0479-3.4412-3.1913-1.6429-9.1881 3.1704-9.8306l1.5854-.2114-.8848-1.333c-2.1587-3.2533-.509-7.8334 3.4849-8.7437l1.1558-.2637-.4541-1.0947c-1.3368-3.2207.4845-6.8812 3.8418-7.7505l.8506-.2207-.1094-.8716c-.315-2.5204 2.1415-5.8442 5.7359-5.8442 3.6519 0 6.109 3.3975 5.7383 6.021l-.1152.8018c.341.1924 2.8256.6108 4.0229 3.3594.6235 1.4321.6382 3.0693.041 4.4912l-.4614 1.0976 1.1611.2646c3.8966.8879 5.7065 5.4217 3.4946 8.7534l-.8853 1.333 1.5859.2114c2.8242.377 4.9536 2.8164 4.9536 5.6748 0 5.0928-6.1763 7.6115-9.7368 4.1108l-.6982-.687-.7012.6841c-2.2117 2.1575-5.7938 2.1818-8.0103.0029l-.7012-.6895c-.3814.2769-1.7579 2.313-4.7002 2.314-1.513.0002-2.9329-.577-3.9984-1.6244zm8.6988 2.0372c.7323.5642 1.5599.9713 2.4376 1.2378.173 2.1526.3967 4.3149.6674 6.4834h-4.2359v2h4.4921c.7044 5.0931 1.6741 10.2125 2.9015 15.3081h-12.5254c.244-1.0129.4776-2.027.7012-3.0415h3.7778v-2h-3.3573c1.298-6.2699 2.2053-12.55 2.7039-18.7502.8777-.2667 1.7051-.6739 2.4371-1.2376zm-34.752 25.0292h-3.0928v-5.5322h3.0928zm-25.1118-30.2578h27.061v3.4038h-27.061zm5.5698 5.4038h15.9219v1.4893h-15.9219zm-5.5698 3.4893h27.061v3.4038h-27.061zm5.5698 5.4038h15.9219v1.4897h-15.9219zm-8.7021 8.4287v-1.4697h13.043v-2h-13.043v-1.4692h33.3257v4.939c-6.6866-.0001-25.8556-.0001-33.3257-.0001zm8.1743 2v5.5322h-3.0928v-5.5322zm2 0h12.9771v5.6255h-12.9771z"/><path d="m83.1841 60.2537c-.5479-2.7471-1.0225-5.5371-1.4121-8.293l-1.9805.2803c.395 2.7925.876 5.6196 1.4307 8.4033z"/><path d="m79.1406 46.9705c.085.8047.1768 1.6104.2749 2.4165l1.9854-.2422c-.0972-.7954-.1875-1.5903-.271-2.3843z"/><path d="m72.122 62.593h1.606v2h-1.606z"/><path d="m83.9502 39.2156c.7163.7036 1.667 1.0752 2.6421 1.0752.5059 0 1.0181-.1001 1.5078-.3052 1.4512-.6089 2.353-1.9609 2.353-3.5283 0-1.9111-1.4209-3.542-3.3052-3.7935l-.2646 1.9824c.895.1196 1.5698.8979 1.5698 1.811 0 .7583-.4214 1.3877-1.1265 1.6836-.5479.23-1.354.2583-1.9751-.3521z"/><path d="m83.7534 26.0686c0 .374-.0996.7056-.3042 1.0137l1.665 1.1074c.4243-.6377.6392-1.3511.6392-2.1211 0-1.771-1.25-3.3408-2.9717-3.7334l-.4443 1.9502c.8203.187 1.416.937 1.416 1.7832z"/><path d="m79.0435 16.927c0 .2393-.0464.4756-.1338.6831l1.8428.7773c.1904-.4517.291-.9565.291-1.4604 0-1.6006-1.0039-3.0454-2.4976-3.5947l-.6904 1.877c.7104.2612 1.188.9516 1.188 1.7177z"/><path d="m74.665 10.1931h2c0-2.1206-1.7256-3.8457-3.8472-3.8457-2.0728 0-3.7573 1.6353-3.8354 3.7227l1.999.0742c.0376-1.0073.8442-1.7969 1.8364-1.7969 1.0186 0 1.8472.8282 1.8472 1.8457z"/><path d="m64.2544 18.409 1.8467-.7686c-.0947-.2271-.1426-.4673-.1426-.7134 0-.8335.5596-1.5605 1.3608-1.7681l-.501-1.9365c-2.2495.5825-3.4597 3.0317-2.5639 5.1866z"/><path d="m59.2588 26.0686c0 .7695.2144 1.4829.6377 2.1201l1.666-1.1055c-.2041-.3086-.3037-.6401-.3037-1.0146 0-.8555.5781-1.5845 1.4063-1.7734l-.4453-1.9502c-1.7432.3979-2.961 1.9292-2.961 3.7236z"/><path d="m57.6797 38.1404c-.7021-.2959-1.1211-.9253-1.1211-1.6831 0-.9131.6748-1.6914 1.5693-1.811l-.2646-1.9824c-1.8838.2515-3.3047 1.8823-3.3047 3.7935 0 1.5654.8984 2.9165 2.3442 3.5264.5015.2114 1.0195.3145 1.5298.3145.9717 0 1.9126-.3745 2.6479-1.0913l-1.3965-1.4316c-.6391.6233-1.453.5979-2.0043.365z"/><path d="m24.916 56.633h3.586v2h-3.586z"/><path d="m13.8784 16.4285c.1465.4785.5771.8008 1.0718.8018h.002c.4937 0 .9248-.3208 1.0737-.8022.5264-1.7192 1.9951-3.0801 3.7417-3.4668l-.4326-1.9531c-1.7954.3979-3.3799 1.5317-4.3828 3.0571-1.0039-1.5264-2.5884-2.6592-4.3828-3.0571l-.4326 1.9531c1.7465.3866 3.2153 1.7475 3.7416 3.4672z"/><path d="m25.0801 25.658c.1494.4907.5898.8203 1.0952.8203s.9458-.3296 1.0947-.8188c.6406-2.0908 2.4272-3.7461 4.5513-4.2173l-.4326-1.9522c-2.165.4795-4.0649 1.8867-5.2134 3.7705-1.1479-1.8838-3.0479-3.291-5.2129-3.7705l-.4326 1.9521c2.1235.4708 3.9101 2.126 4.5503 4.2159z"/><path d="m30.1465 11.4719c.1533.502.6035.8398 1.1201.8403h.0015c.5161 0 .9663-.3364 1.1216-.8398.7837-2.5586 2.9688-4.5835 5.5679-5.1587l-.4326-1.9531c-2.6372.5845-4.938 2.3457-6.2573 4.687-1.3198-2.3418-3.6201-4.103-6.2568-4.687l-.4326 1.9531c2.5985.5752 4.7845 2.6001 5.5682 5.1582z"/><path d="m53.071 62.593h7.736v2h-7.736z"/><path d="m48.446 62.593h2.891v2h-2.891z"/></g></svg>