<svg id="Layer_1" enable-background="new 0 0 98 98" height="512" viewBox="0 0 98 98" width="512" xmlns="http://www.w3.org/2000/svg"><g><path d="m2.0435 65.8687-.082 1.998c13.0337.5381 44.7734 4.3599 57.9575 28.1636l1.75-.9688c-6.068-10.9553-15.8577-17.8214-26.0391-22.1252v-7.5374l3.9517 3.9517 1.4141-1.4141-5.3657-5.3657v-1.1777l2.1895 2.1895 1.4141-1.4141-3.6035-3.6035v-1.452l.9761.9758 1.4141-1.4141-3.3901-3.3906-3.3936 3.3901 1.4131 1.415.9805-.9792v1.4555l-3.6069 3.6024 1.4131 1.415 2.1938-2.1912v1.1817l-5.3687 5.3625 1.4131 1.415 3.9556-3.9513v6.7231c-6.8248-2.6545-13.7202-4.2063-19.7095-5.1092v-6.3921l3.9492 3.9492 1.4141-1.4141-5.3633-5.3633v-1.1777l2.187 2.187 1.4141-1.4141-3.6011-3.6011v-1.4519l.9736.9734 1.4141-1.4141-3.3901-3.3906-3.3936 3.3901 1.4131 1.415.9829-.9817v1.4555l-3.6097 3.6052 1.4131 1.415 2.1963-2.1936v1.1817l-5.3711 5.3649 1.4131 1.415 3.958-3.9537v6.1127c-3.8427-.507-7.2376-.7527-9.8769-.8615z"/><path d="m70.7822 84.2856 4.8233 4.8233 1.414-1.4141-6.2373-6.2377v-1.7936l2.791 2.7906 1.4141-1.4141-4.2051-4.2047v-2.1099l1.3907 1.3903 1.414-1.414-3.8027-3.8033-3.8067 3.8028 1.4131 1.415 1.3916-1.3899v2.1138l-4.2046 4.1995 1.4131 1.415 2.7915-2.7883v1.7983l-6.2373 6.2297 1.4131 1.4151 4.8242-4.8182v10.2518h-3.498v2h30.7182v-2h-25.2202z"/><path d="m80.2759 75.2095 1.4131 1.415 4.8242-4.8185v7.338h2v-7.3437l4.8237 4.8237 1.4141-1.414-6.2378-6.2378v-1.794l2.791 2.791 1.4141-1.414-4.2051-4.2059v-2.1096l1.3911 1.3912 1.4141-1.4141-3.8028-3.8027-3.8071 3.8022 1.4131 1.415 1.3916-1.3898v2.1134l-4.2046 4.1998 1.4131 1.415 2.7915-2.7879v1.7979z"/><path d="m62.0605 60.2456 1.4131 1.415 4.8243-4.8185v6.3591h2v-6.3648l4.8237 4.8238 1.414-1.4141-6.2377-6.2378v-1.7936l2.791 2.7907 1.414-1.4141-4.205-4.2047v-2.1107l1.3911 1.3911 1.414-1.4141-3.8027-3.8027-3.8071 3.8022 1.4131 1.4151 1.3916-1.3899v2.1138l-4.2046 4.1994 1.413 1.4151 2.7916-2.7883v1.7983z"/><path d="m18.7246 50.2837 1.4131 1.415 3.9536-3.9493v6.4962h2v-6.501l3.9536 3.9536 1.4141-1.414-5.3677-5.3677v-1.1777l2.1914 2.1914 1.4141-1.4141-3.6055-3.6055v-1.4519l.978.9778 1.4141-1.414-3.3901-3.3907-3.3936 3.3902 1.4131 1.415.9785-.9773v1.4555l-3.605 3.6004 1.4131 1.4151 2.1919-2.1892v1.1817z"/><path d="m61.7508 38.066c-1.4489-3.1861-4.6354-5.2984-8.2518-5.2984-2.8792 0-5.5187 1.3515-7.2138 3.5903l-15.5132-21.3848-29.5498 36.8819 1.5605 1.251 19.8803-24.8135c.4372 2.4162 3.4143 3.398 5.2042 1.6636.4785-.4648 1.284-.408 1.6777.1729.3422.3746.9088 1.9523 2.7866 2.1543.9394.0989 1.8289-.2277 2.4692-.8379l3.223-3.0695 14.1731 19.5379-3.7549 3.8705 1.4355 1.3926 17.4525-17.9888 1.6901 3.0528c1.1629 2.0999 4.1436 2.1886 5.4326.1699.4093-.6408 1.3056-.7174 1.8223-.1753.13.095.9687 1.35 2.7095 1.2842.9097-.0371 1.7598-.4644 2.332-1.1729l1.4377-1.7808 12.4729 15.3257 1.5508-1.2627-21.539-26.4659zm-28.3289-8.0689c-.2388.2266-.5498.334-.877.2974-.7542-.0811-.9039-.7455-1.3452-1.2891-1.0884-1.6038-3.3498-1.8164-4.7241-.4858-.6813.6604-1.8112.2136-1.8652-.7266l-.1043-1.8009 6.1868-7.722 6.1462 8.4726zm14.1078 8.0763c1.2868-2.0471 3.5151-3.3058 5.9693-3.3058 3.0963 0 5.7694 1.9934 6.7059 4.8918l-6.594 6.7968zm32.231-.9836c-.2134.2642-.5181.4175-.8579.4312-.6876.0469-1.003-.5206-1.1802-.665-1.4016-1.4715-3.8405-1.2686-4.9556.4785-.4626.7237-1.5606.7269-1.9971-.0625l-1.9844-3.5844 6.3223-6.5167 6.3559 7.8096z"/><path d="m41.892 55.703h6.344v2h-6.344z" transform="matrix(.696 -.718 .718 .696 -27.013 49.566)"/><path d="m8.124 77.651h2v2h-2z"/><path d="m4.125 77.651h2v2h-2z"/><path d="m16.482 82.68h5.854v2h-5.854z"/><path d="m32.568 89.757h2v2h-2z"/><path d="m36.568 89.757h2v2h-2z"/><path d="m11.8 71.313h2v2h-2z"/><path d="m7.8 71.313h2v2h-2z"/><path d="m45.743 89.757h6.833v2h-6.833z"/><path d="m31.827 81.359h6.833v2h-6.833z"/><path d="m23.194 90.952h2.216v2h-2.216z"/><path d="m15.27 90.952h6.328v2h-6.328z"/><path d="m3.839 87.402h2v2h-2z"/><path d="m7.839 87.402h2v2h-2z"/><path d="m19.556 74.409h6.833v2h-6.833z"/><path d="m52.499 24.528h2v5.599h-2z"/><path d="m43.442 28.272h5.599v2h-5.599z" transform="matrix(.5 .866 -.866 .5 48.471 -25.41)"/><path d="m59.757 26.473h2v5.599h-2z" transform="matrix(-.866 -.5 .5 -.866 98.743 84.997)"/><path d="m35.2119 17.8584h8.9517v-2h-.976c-.3429-4.734-5.0225-7.5506-9.2062-6.2109-.1544-4.5-3.8617-8.1905-8.4863-8.1905-4.6139 0-8.1752 3.6212-8.4771 7.8525-3.6474-.1673-7.0388 2.6151-7.3325 6.5488h-1.7084v2h8.5122v-2h-4.8036c.3132-3.0035 3.1904-5.0853 6.1176-4.4355l1.3213.2939-.1079-1.3496c-.2825-3.5427 2.5797-6.9102 6.4785-6.9102 4.0556 0 7.1058 3.6867 6.3867 7.6377l-.4141 2.2769 1.9419-1.2588c3.1507-2.0416 7.3981-.0028 7.778 3.7456h-5.9757v2.0001z"/><path d="m18.381 15.858h8.224v2h-8.224z"/><path d="m80.6992 19.666h14.7441v-2h-.827c-.1841-2.2155-1.4182-4.1415-3.4035-5.2207-1.5874-.8623-3.4185-1.0347-5.0811-.5308-.0801-1.6987-.7119-3.3413-1.8296-4.6812-1.5068-1.8052-3.7178-2.8408-6.0664-2.8408-2.1997 0-4.3198.9302-5.8174 2.5522-1.2051 1.3042-1.9287 2.9634-2.0684 4.6826-1.5366-.0503-3.0718.4565-4.3169 1.4551-1.4234 1.1415-2.2897 2.7889-2.4432 4.5835h-1.5006v2h7.8457v-2h-4.3395c.1461-1.184.7421-2.264 1.6887-3.0234 1.0952-.8784 2.4956-1.2095 3.8447-.9102l1.3213.2939-.1074-1.3496c-.1265-1.5806.437-3.1753 1.5449-4.3755 1.1367-1.231 2.6807-1.9087 4.3481-1.9087 1.7539 0 3.4053.7734 4.5308 2.1226 1.1255 1.3486 1.5913 3.1069 1.2788 4.8242l-.4146 2.2773 1.9424-1.2593c1.4199-.9189 3.1704-.9766 4.6846-.1548 1.3311.7233 2.1825 1.9925 2.3586 3.4634h-11.9171z"/><path d="m71.678 17.666h6.235v2h-6.235z"/></g></svg>