<svg id="Avatar_Flat" height="512" viewBox="0 0 128 128" width="512" xmlns="http://www.w3.org/2000/svg" data-name="Avatar Flat"><path d="m85.71 17.12c-18.522 0-20.9.038-43.575.038-7.566 1.785-8.646 13.242-7.295 28.752 30.223 12.1 33.21 9.39 58.31 0 1.36-15.61.26-27.12-7.44-28.79z" fill="#aa6659"/><path d="m40.1 60.59c-3.79 1.3-7.27-2.49-8.2-5.78-.77-2.76-.61-7.56 2.94-8.9a7.171 7.171 0 0 1 4.53-.12c3.318 1.523 5.45 12.523.73 14.8z" fill="#ff7364"/><circle cx="36.493" cy="59.073" fill="#f7f0df" r="1.934"/><path d="m88.69 45.79a6.955 6.955 0 0 1 4.46.12c3.56 1.34 3.72 6.14 2.94 8.9-.92 3.29-4.34 7.1-8.12 5.8v-.02c-3.595-4.84-3.678-12.132.72-14.8z" fill="#ff7364"/><circle cx="91.507" cy="59.073" fill="#f7f0df" r="1.934"/><path d="m39.73 54.48a1 1 0 0 1 -.89-.545.876.876 0 0 1 -.039-.082 4.037 4.037 0 0 0 -2.813-2.308 1 1 0 0 1 .339-1.971 6.072 6.072 0 0 1 4.3 3.457 1.029 1.029 0 0 1 .106.449 1 1 0 0 1 -1.003 1z" fill="#ed4850"/><path d="m88.34 54.42a1 1 0 0 1 -.919-1.394 5.856 5.856 0 0 1 4.262-3.455 1 1 0 0 1 .295 1.978 3.844 3.844 0 0 0 -2.719 2.264 1 1 0 0 1 -.919.607z" fill="#ed4850"/><path d="m102.84 109.58a50.534 50.534 0 0 0 -20.67-17.66c-2.87-1.34-4.67-2.1-6.61-4.69a5.354 5.354 0 0 0 -1.1.86c-2.16 2.23-5.4 5.36-10.43 5.29-5.03.07-8.27-3.06-10.43-5.29a5.21 5.21 0 0 0 -1.15-.89c-1.94 2.59-3.75 3.38-6.62 4.72a50.534 50.534 0 0 0 -20.67 17.66c-2.67 4.26-.2 6.57 3.63 8.68 3.64 2.01 14.18 6.06 30.96 6.66 1.37.05 2.79.08 4.25.08s2.88-.03 4.25-.08c16.78-.6 27.32-4.65 30.96-6.66 3.83-2.11 6.3-4.42 3.63-8.68z" fill="#85934a"/><path d="m68.25 124.909c-1.37.057-2.79.091-4.25.091s-2.88-.034-4.25-.091c0-7.863-.06-23.378.4-34.254 1.34-1.62 6.36-1.6 7.73.023 0 0 .37 26.368.37 34.231z" fill="#f4e9d0"/><path d="m39.72 53.46c.06 1.1.13 2.18.18 3.17.11 1.89.19 3.42.2 3.96.15 20.6 47.87 22.243 47.87.02v-.02c.01-.54.09-2.07.19-3.96.06-.99.12-2.09.18-3.2v-.01c.18-3.2.35-6.49.35-7.63.01-6.24.05-19.88-5.47-23.88a6.236 6.236 0 0 0 -5.07-.97c-3.53.68-5.72 3.87-14.15 3.87s-10.56-3.19-14.09-3.87a6.248 6.248 0 0 0 -5.09.99c-5.5 4.02-5.46 17.63-5.45 23.86.01 1.14.18 4.45.35 7.67z" fill="#ff977b"/><path d="m39.9 56.63a13.169 13.169 0 0 0 4.67 7.02 5.513 5.513 0 0 0 6.4-.05c2.55-1.85 7.42-3.48 13.03-3.48s10.54 1.63 13.09 3.48a5.529 5.529 0 0 0 6.41.05 13.2 13.2 0 0 0 4.66-7.02c-.1 1.89-.18 3.42-.19 3.96v.02c-.06 4.47-1.18 22.21-10.97 25.92a8.332 8.332 0 0 0 -1.44.7 5.354 5.354 0 0 0 -1.1.86c-2.16 2.23-5.4 5.36-10.43 5.29-5.03.07-8.27-3.06-10.43-5.29a5.21 5.21 0 0 0 -1.15-.89v-.01a8.338 8.338 0 0 0 -1.38-.66c-9.81-3.72-10.91-21.5-10.97-25.94-.01-.54-.09-2.07-.2-3.96z" fill="#9e544c"/><path d="m85.71 17.12c.02 2.24-.88 4.21-2.49 4.79a6.236 6.236 0 0 0 -5.07-.97c-3.53.68-5.72 3.87-14.15 3.87s-10.56-3.19-14.09-3.87a6.248 6.248 0 0 0 -5.09.99c-1.64-.56-2.55-2.55-2.54-4.81a8.525 8.525 0 0 1 1.65-5 22.655 22.655 0 0 1 3.44-3.73l.51-.42c.39-.31.79-.61 1.22-.89a16.884 16.884 0 0 1 1.82-1.1 23.154 23.154 0 0 1 4.85-1.85q.6-.165 1.23-.3c.77-.17 1.57-.32 2.43-.43a40.94 40.94 0 0 1 4.57-.4 42.353 42.353 0 0 1 4.81.43c.34.05.67.1 1 .16.01 0 .03.01.04.01a27.643 27.643 0 0 1 3.42.83 20.263 20.263 0 0 1 10.79 7.69 8.525 8.525 0 0 1 1.65 5z" fill="#9e544c"/><path d="m64.03 93.38c5.03.07 8.27-3.06 10.43-5.29a5.354 5.354 0 0 1 1.1-.86c2.51 7.79-.46 12.18-1.33 13.65a2.232 2.232 0 0 1 -2.09 1.15c-1.11-.09-2.68-1.92-4.26-3.6-1.37-1.42-2.74-2.73-3.88-2.73s-2.51 1.29-3.85 2.71c-1.6 1.68-3.17 3.53-4.29 3.62a2.232 2.232 0 0 1 -2.09-1.15c-.87-1.47-3.83-5.89-1.32-13.68a5.21 5.21 0 0 1 1.15.89c2.16 2.23 5.4 5.36 10.43 5.29z" fill="#f7f0df"/><path d="m78.75 48.3v1.1a2.312 2.312 0 1 1 -4.62 0v-1.1a2.355 2.355 0 0 1 2.31-2.4 2.257 2.257 0 0 1 1.636.7 2.488 2.488 0 0 1 .674 1.7z" fill="#9e544c"/><path d="m49.257 48.3v1.1a2.312 2.312 0 1 0 4.621 0v-1.1a2.356 2.356 0 0 0 -2.31-2.4 2.259 2.259 0 0 0 -1.637.7 2.488 2.488 0 0 0 -.674 1.7z" fill="#9e544c"/><circle cx="64.032" cy="105.458" fill="#85934a" r="2.026"/><circle cx="64.032" cy="116.021" fill="#85934a" r="2.026"/><path d="m64 58.01c-.03 0-3.03-.047-3.03-1.71a1 1 0 0 1 1.853-.522 3.1 3.1 0 0 0 2.355 0 1 1 0 0 1 1.852.523c0 1.635-3 1.709-3.03 1.709z" fill="#ed4850"/><g fill="#844544"><path d="m64 66.11c-1.75 0-4.051-.176-5.075-1.017a1 1 0 1 1 1.269-1.546c.178.146 1.259.563 3.806.563s3.616-.41 3.813-.568a1 1 0 1 1 1.255 1.558c-1.091.879-3.643 1.01-5.068 1.01z"/><path d="m83.831 44.81a1 1 0 0 1 -.814-.419c-.369-.515-2.517-1.478-5.959-1.911-3.35-.42-6.308-.1-7.364.785a1 1 0 0 1 -1.289-1.53c2.2-1.851 6.956-1.484 8.9-1.239 2.86.359 6.289 1.266 7.337 2.733a1 1 0 0 1 -.813 1.581z"/><path d="m80.611 48.42a1 1 0 0 1 -.855-.481 3.608 3.608 0 0 0 -2.481-1.319 4.947 4.947 0 0 0 -3.89.834 1 1 0 1 1 -1.285-1.528 6.874 6.874 0 0 1 5.5-1.28 5.438 5.438 0 0 1 3.865 2.254 1 1 0 0 1 -.854 1.52z"/><path d="m44.169 44.81a1 1 0 0 1 -.813-1.581c1.044-1.467 4.478-2.374 7.344-2.729 1.946-.245 6.711-.614 8.909 1.239a1 1 0 1 1 -1.289 1.53c-1.056-.891-4.02-1.207-7.37-.785-3.445.433-5.593 1.4-5.962 1.911a1 1 0 0 1 -.819.415z"/><path d="m47.389 48.42a.988.988 0 0 1 -.522-.148 1 1 0 0 1 -.33-1.375 5.463 5.463 0 0 1 3.888-2.253 6.889 6.889 0 0 1 5.49 1.282 1 1 0 1 1 -1.291 1.528 4.949 4.949 0 0 0 -3.881-.835 3.64 3.64 0 0 0 -2.5 1.323 1 1 0 0 1 -.854.478z"/><path d="m77.2 14.74a1.011 1.011 0 0 1 -.91.57.965.965 0 0 1 -.43-.1 1 1 0 0 1 -.48-1.33 4.541 4.541 0 0 0 .08-3.8c-1.05-2.61-4.79-5.9-6.65-6.65.34.05.67.1 1 .16.01 0 .03.01.04.01a27.643 27.643 0 0 1 3.42.83 11.9 11.9 0 0 1 4.05 4.9 6.543 6.543 0 0 1 -.12 5.41z"/><path d="m55.49 14.74a1 1 0 0 1 -.84 1.13.757.757 0 0 1 -.15.01 1 1 0 0 1 -.99-.86c-.04-.24-1.44-6.63-6.12-6.63h-.02l.51-.42c.39-.31.79-.61 1.22-.89 4.25.72 6.03 5.19 6.39 7.66z"/><path d="m67.03 15.39a1 1 0 0 1 -1 .99h-.01a1.01 1.01 0 0 1 -.99-1.01c0-.38-1.09-10.05-9.22-11.23a.06.06 0 0 1 -.04-.01q.6-.165 1.23-.3c.77-.17 1.57-.32 2.43-.43 7.59 2.64 7.6 11.89 7.6 11.99z"/></g><path d="m74.48 117.694c-.167 0-.334 0-.5 0a1 1 0 0 1 -.98-1.021.988.988 0 0 1 1.018-.983 53.008 53.008 0 0 0 14.492-2.137 1 1 0 0 1 .64 1.894 55.093 55.093 0 0 1 -14.67 2.247z" fill="#f7f0df"/></svg>