<svg id="Layer_1" enable-background="new 0 0 98 98" height="512" viewBox="0 0 98 98" width="512" xmlns="http://www.w3.org/2000/svg"><g><path d="m59.8721 68.8789.252-.1694c11.7314-7.8667 18.9922-25.6387 18.9922-37.5928-.0001-16.6064-13.5108-30.1167-30.1173-30.1167-19.8908 0-39.3303 20.0894-25.1426 50.1201 3.6172 7.7017 8.6006 13.9482 14.0313 17.5894l.252.1694h3.9551v5.7407h-6.4004v16.9185c0 3.0117 2.4502 5.4619 5.4619 5.4619h15.6865c3.0117 0 5.4619-2.4502 5.4619-5.4619v-16.9185h-6.4004v-5.7407zm-25.4214-39.3804c.4182-14.1124 6.2576-25.4646 13.5542-26.4235v12.8497h-7.0703v2h7.0703v26.9917h-7.0703v2h7.0703v19.9609h-4.1641c-5.5845-7.4045-9.328-24.0082-9.4084-35.3789h5.7756v-2h-5.7573zm28.2793-7.8598c.5521 2.9637.855 6.1548.855 9.4805 0 6.2013-1.1267 14.036-3.0601 21.0986h-5.2954v2h4.7173c-1.5417 5.093-3.5039 9.6446-5.7778 12.6597h-4.1641v-30.938h7.0703v-2h-7.0703v-30.8644c5.4895.7214 10.152 7.3253 12.3042 16.5636h-4.9683v2zm14.2143 6.3994h-6.8984v2h7.043c.0135.3585.0273.7169.0273 1.0786 0 5.4661-1.661 12.2164-4.5542 18.5781h-4.8052v2h3.8447c-3.0889 6.1339-7.3182 11.7274-12.3418 15.1841h-2.6479c4.0464-6.1467 6.9449-16.3603 8.2306-25.7456h4.5648v-2h-4.3143c.322-2.8282.4921-5.5475.4921-8.0142 0-5.8976-.8905-11.3461-2.4425-15.9438h4.6544v-2h-5.3926c-1.5771-3.9169-3.668-7.0879-6.1091-9.2096 11.0169 2.9636 19.3788 12.4654 20.6491 24.0724zm-50.561 23.6567h3.939v-2h-4.9099c-2.7251-5.944-4.7462-13.2013-4.5022-19.6567h7.123v-2h-6.9785c1.271-11.6128 9.6404-21.1186 20.665-24.0771-2.6393 2.2917-4.8706 5.8073-6.4851 10.1684h-5.6721v2h4.9983c-1.3608 4.3909-2.136 9.4942-2.136 14.9897 0 2.6946.2021 5.6901.585 8.8008h-4.9766v2h5.2452c1.337 9.165 4.1859 18.9836 8.1195 24.959h-2.646c-4.6987-3.2335-9.0371-8.5883-12.3686-15.1841zm33.9214 24.9248v3.2827h-3.3115v2h3.3115v9.6357c0 1.9087-1.5527 3.4619-3.4619 3.4619h-15.6865c-1.9092 0-3.4619-1.5532-3.4619-3.4619v-9.6357h16.8408v-2h-16.8409v-3.2827zm-6.4004-2h-9.8096v-5.7407h9.8096z"/><path d="m80.7705 74.0298h15.2295v-2h-1.6462c-.5202-3.2238-3.4226-5.4013-6.4436-5.2393-.6748-4.0527-4.1699-7.0855-8.3965-7.0855-4.2158 0-7.7188 3.0386-8.3975 7.0903-3.041-.0596-5.7741 2.0985-6.2815 5.2344h-1.6453v2h9.1045v-2h-5.4225c.5455-2.2422 2.7612-3.5973 4.9323-3.1509l1.1504.2358.0498-1.1729c.1484-3.4971 3.0078-6.2368 6.5098-6.2368 3.5234 0 6.3828 2.7554 6.5098 6.2725l.0449 1.2612 1.2178-.332c2.0914-.569 4.4795.8306 5.0365 3.123h-11.5522z"/><path d="m74.152 72.03h4.527v2h-4.527z"/><path d="m24.5811 11.0752 1.5176-1.3027c-1.7051-1.9863-4.1846-3.1255-6.8037-3.1255-4.4551 0-8.1533 3.2231-8.8457 7.5132-3.3124-.0878-6.1543 2.2808-6.6565 5.5439h-1.7928v2h8.5859v-2h-4.7679c.5374-2.3897 2.9126-3.9487 5.3207-3.4556l1.1504.2358.0498-1.1729c.1582-3.7373 3.2139-6.6646 6.9561-6.6646 2.0351.0002 3.9609.8854 5.2861 2.4284z"/><path d="m13.615 19.704h4.796v2h-4.796z"/><path d="m10.292 85.2876h2c0-1.5 1.2207-2.7202 2.7207-2.7202v-2c-1.5098 0-2.8555.7124-3.7207 1.8179-.8643-1.1055-2.2109-1.8179-3.7197-1.8179v2c1.5 0 2.7197 1.2202 2.7197 2.7202z"/><path d="m9.7969 62.1611c0-2.2549 1.835-4.0894 4.0898-4.0894v-2c-2.125 0-4 1.0947-5.0898 2.749-1.0898-1.6543-2.9648-2.749-5.0898-2.749v2c2.2549 0 4.0898 1.8345 4.0898 4.0894z"/><path d="m27.3242 66.8774c-1.5098 0-2.8564.7124-3.7207 1.8184-.8643-1.106-2.2109-1.8184-3.7207-1.8184v2c1.5 0 2.7207 1.2207 2.7207 2.7207h2c0-1.5 1.2207-2.7207 2.7207-2.7207z"/><path d="m78.0518 8.2021c0-2.2549 1.835-4.0894 4.0898-4.0894v-2c-2.125 0-4 1.0942-5.0898 2.749-1.0898-1.6548-2.9639-2.749-5.0889-2.749v2c2.2549 0 4.0889 1.8345 4.0889 4.0894z"/><path d="m88.8584 20.6387h2c0-1.5 1.2207-2.7202 2.7207-2.7202v-2c-1.5098 0-2.8555.7124-3.7207 1.8179-.8643-1.1055-2.2109-1.8179-3.7197-1.8179v2c1.5 0 2.7197 1.2202 2.7197 2.7202z"/></g></svg>