<svg id="Layer_1" enable-background="new 0 0 98 98" height="512" viewBox="0 0 98 98" width="512" xmlns="http://www.w3.org/2000/svg"><g><path d="m87.6533 79.8994c-5.9858.001-7.3868-3.3456-7.751-3.625-.3465.2659-1.7969 3.625-7.751 3.625-5.9858.001-7.3868-3.3456-7.751-3.625-.3465.2659-1.7978 3.626-7.752 3.625-5.9858 0-7.3795-3.3414-7.749-3.625-.3465.2658-1.7978 3.626-7.752 3.625-5.9858 0-7.3859-3.3456-7.75-3.625-.3465.2659-1.7969 3.625-7.751 3.625-5.9858.001-7.3868-3.3456-7.751-3.625-.3465.2659-1.7969 3.625-7.751 3.625-3.0264.0005-5.6943-1.0044-6.9639-2.6221l-1.5742 1.2344c1.665 2.1216 4.8574 3.3882 8.5381 3.3877 3.166 0 5.9697-.9365 7.751-2.5474 1.7822 1.6113 4.5859 2.5479 7.751 2.5474 3.166 0 5.9697-.9365 7.751-2.5474 1.7822 1.6108 4.585 2.5474 7.75 2.5474 3.166 0 5.9697-.936 7.752-2.5474 1.7813 1.6108 4.584 2.5474 7.749 2.5474h.001c3.166 0 5.9697-.936 7.751-2.5474 1.7822 1.6113 4.5859 2.5479 7.751 2.5474 3.166 0 5.9697-.9365 7.751-2.5474 1.7822 1.6113 4.5859 2.5479 7.751 2.5474 3.6816 0 6.873-1.2666 8.5381-3.3877l-1.5742-1.2344c-1.2686 1.6172-3.9375 2.6221-6.9639 2.6221z"/><path d="m87.6533 87.4487c-5.9858.001-7.3868-3.3456-7.751-3.625-.3465.2659-1.7969 3.625-7.751 3.625-5.9858.001-7.3868-3.3456-7.751-3.625-.3465.2659-1.7978 3.626-7.752 3.625-5.9858 0-7.3795-3.3414-7.749-3.625-.3465.2658-1.7978 3.626-7.752 3.625-5.9858 0-7.3859-3.3456-7.75-3.625-.3465.2659-1.7969 3.625-7.751 3.625-5.9858.001-7.3868-3.3456-7.751-3.625-.3465.2659-1.7969 3.625-7.751 3.625-3.0264.0005-5.6943-1.0044-6.9639-2.6221l-1.574 1.2344c1.665 2.1216 4.8574 3.3882 8.5381 3.3877 3.166 0 5.9697-.9365 7.751-2.5474 1.7822 1.6113 4.5859 2.5479 7.751 2.5474 3.166 0 5.9697-.9365 7.751-2.5474 1.7822 1.6108 4.585 2.5474 7.75 2.5474 3.166 0 5.9697-.936 7.752-2.5474 1.7813 1.6108 4.584 2.5474 7.749 2.5474h.001c3.166 0 5.9697-.936 7.751-2.5474 1.7822 1.6113 4.5859 2.5479 7.751 2.5474 3.166 0 5.9697-.9365 7.751-2.5474 1.7822 1.6113 4.5859 2.5479 7.751 2.5474 3.6816 0 6.873-1.2666 8.5381-3.3877l-1.5742-1.2344c-1.2688 1.6172-3.9377 2.6221-6.9641 2.6221z"/><path d="m87.6533 94.9985c-5.9858 0-7.3814-3.341-7.751-3.6245-.3465.2658-1.7969 3.6236-7.751 3.6245-5.9858 0-7.3814-3.341-7.751-3.6245-.3465.2658-1.7978 3.6245-7.752 3.6245-5.9858 0-7.3795-3.341-7.749-3.6245-.341.2615-1.7588 3.6245-7.752 3.6245-5.9858 0-7.3805-3.341-7.75-3.6245-.3465.2658-1.7969 3.6236-7.751 3.6245-5.9858 0-7.3814-3.341-7.751-3.6245-.3465.2658-1.7969 3.6236-7.751 3.6245-3.0264 0-5.6943-1.0049-6.9639-2.6221l-1.5742 1.2344c1.665 2.1216 4.8574 3.3877 8.5381 3.3877 3.166-.0005 5.9697-.9365 7.751-2.5474 1.7822 1.6108 4.5859 2.5474 7.751 2.5474 3.166-.0005 5.9697-.9365 7.751-2.5474 1.7813 1.6108 4.585 2.5474 7.75 2.5474 3.166 0 5.9697-.9365 7.752-2.5474 1.7813 1.6108 4.584 2.5474 7.749 2.5474h.001c3.166 0 5.9697-.9365 7.751-2.5474 1.7822 1.6108 4.5859 2.5474 7.751 2.5474 3.166-.0005 5.9697-.9365 7.751-2.5474 1.7822 1.6108 4.5859 2.5474 7.751 2.5474 3.6816-.0005 6.873-1.2666 8.5381-3.3877l-1.5742-1.2344c-1.2686 1.6173-3.9375 2.6216-6.9639 2.6221z"/><path d="m47.1648 67.1035h1.2219l2.6748 3.2632 1.5469-1.2676-3.2744-3.9956c-.2427 0-11.2654 0-11.0742 0l-5.6709-11.9927-1.8086.8555 6.2139 13.1372h2.4775l-1.4159 3.9556h-8.5089v-21.2217h24.0547l-19.5879-21.375h-10.9346l-19.5869 21.375h24.0547v21.2217h-8.5089l-1.4159-3.9556h2.4775l6.2139-13.1372-1.8086-.8555-5.6709 11.9927c-.2559 0-11.7214 0-11.0742 0l-3.2744 3.9956 1.5469 1.2676 2.6748-3.2632h1.2219l-1.4153 3.9556h-6.1201v2h94v-2h-47.8135zm-34.9752-23.7974h7.6072v-2h-5.7744l3.9476-4.3076h14.2975v-2h-12.4646l4.157-4.5361h9.1729l4.1573 4.5361h-2.9932v2h4.8262l3.9478 4.3076h-21.485v2h23.3179l4.1528 4.5313h-41.0195zm29.4061 23.7974h3.4453l1.4152 3.9556h-6.2765zm-29.543 0h3.4453l1.416 3.9556h-6.2765z"/><path d="m61.7217 23.251c0-3.6704-2.9863-6.6563-6.6563-6.6563s-6.6563 2.9858-6.6563 6.6563 2.9863 6.6563 6.6563 6.6563 6.6563-2.9859 6.6563-6.6563zm-6.6563 4.6562c-2.5674 0-4.6563-2.0889-4.6563-4.6563s2.0889-4.6563 4.6563-4.6563 4.6563 2.0889 4.6563 4.6563-2.0889 4.6563-4.6563 4.6563z"/><path d="m54.065 10.217h2v3.949h-2z"/><path d="m45.271 14.431h3.949v2h-3.949z" transform="matrix(.707 .707 -.707 .707 24.753 -28.89)"/><path d="m42.031 22.251h3.949v2h-3.949z"/><path d="m46.246 29.097h2v3.949h-2z" transform="matrix(.707 .707 -.707 .707 35.809 -24.307)"/><path d="m54.065 32.336h2v3.948h-2z"/><path d="m60.912 30.071h3.949v2h-3.949z" transform="matrix(.707 .707 -.707 .707 40.39 -35.367)"/><path d="m64.151 22.251h3.948v2h-3.948z"/><path d="m60.912 14.431h3.949v2h-3.949z" transform="matrix(.707 -.707 .707 .707 7.511 48.992)"/><path d="m20.5566 15.7334h15.7314v-2h-1.7278c-.5307-3.383-3.6041-5.6112-6.6569-5.4102-.6826-4.186-4.2861-7.3218-8.6455-7.3218-4.3486 0-7.96 3.1411-8.6465 7.3257-3.0814-.1008-5.9735 2.1243-6.4897 5.4063h-1.728v2h8.373v-2h-4.6152c.2184-.939.7392-1.7872 1.5048-2.4121 2.0833-1.6986 4.244-.697 4.7939-.6724l.0499-1.1728c.1543-3.6309 3.123-6.4746 6.7578-6.4746 3.6582 0 6.626 2.8604 6.7578 6.5122l.0449 1.2607 1.2178-.332c2.1827-.5954 4.6925.8759 5.2543 3.291h-11.976z"/><path d="m13.72 13.733h4.676v2h-4.676z"/><path d="m79.79 58.9258h15.7324v-2h-1.7278c-.5248-3.3452-3.5539-5.6087-6.6579-5.4106-.6816-4.1855-4.2852-7.3213-8.6455-7.3213-4.3486 0-7.96 3.1411-8.6455 7.3252-3.1095-.0887-5.9754 2.1378-6.4897 5.4067h-1.728v2h8.372v-2h-4.6143c.5377-2.3133 2.8301-3.7914 5.1484-3.3208l1.1504.2358.0498-1.1729c.1533-3.6304 3.1211-6.4741 6.7568-6.4741 3.6592 0 6.627 2.8599 6.7578 6.5112l.0449 1.2612 1.2178-.332c2.1849-.5987 4.6935.8796 5.2551 3.2915h-11.9767z"/><path d="m72.953 56.926h4.677v2h-4.677z"/><path d="m79.5576 18.5332c2.6016 0 4.7178 2.1162 4.7178 4.7178h2c0-2.6016 2.1162-4.7178 4.7178-4.7178v-2c-2.4131 0-4.5332 1.2788-5.7178 3.1943-1.1846-1.9155-3.3047-3.1943-5.7178-3.1943z"/><path d="m75.292 9.3169c-1.0039-1.4346-2.6689-2.3745-4.5488-2.3745v2c1.957 0 3.5488 1.5918 3.5488 3.5488h2c0-1.957 1.5918-3.5488 3.5488-3.5488v-2c-1.8799 0-3.5449.9399-4.5488 2.3745z"/><path d="m95.542 3.0327c-1.8799 0-3.5449.9399-4.5488 2.3745-1.0039-1.4346-2.6689-2.3745-4.5488-2.3745v2c1.957 0 3.5488 1.5918 3.5488 3.5488h2c0-1.957 1.5918-3.5488 3.5488-3.5488z"/></g></svg>