<svg id="Layer_1" enable-background="new 0 0 98 98" height="512" viewBox="0 0 98 98" width="512" xmlns="http://www.w3.org/2000/svg"><g><path d="m63.9087 80.009c-.4297-5.0474 3.001-9.2944 6.0273-13.041 2.8682-3.5503 5.5771-6.9038 4.6426-10.4839-1.1182-4.2886-6.7617-4.0391-11.7471-3.8145-3.0635.1372-6.5391.2925-7.5771-.8237-.1836-.1973-.417-.5557-.3203-1.3867.1309-1.1206 2.4639-4.1895 7.0586-7.2168 4.3838-2.8892 16.2529-9.1099 31.749-4.4927l.5703-1.917c-1.5432-.4598-3.0521-.8165-4.5239-1.0844-4.9484-19.0762-22.0576-32.3452-41.8491-32.3452-23.5918 0-42.8201 18.9891-43.2334 42.4844-1.8794.6341-3.0656 1.1511-3.2607 1.2377l.8135 1.8271c.1998-.0889 19.6794-8.5625 33.2876.2442-.5824.9318-.9138 1.9719-.9888 3.121-.3018 4.6016 4.9961 5.3511 9.6699 6.0127 3.8887.5503 7.9092 1.1191 8.7412 3.4883 1.085 3.0898.9512 5.938-.4092 8.7061-4.2061 8.5576-19.0889 13.479-24.7656 15.3564-1.7627.5811-4.2969 2.1099-7.5332 4.5435l1.2012 1.5986c3.0195-2.27 5.4258-3.7373 7.0352-4.2681 6.3682-2.106 21.2813-7.0376 25.8574-16.3481 1.5869-3.2295 1.7559-6.6787.501-10.2515-1.2344-3.5161-5.8672-4.1714-10.3477-4.8057-5.0615-.7163-8.123-1.3364-7.9541-3.9019.2881-4.4165 6.417-6.0815 11.5078-6.7002l-.2422-1.9854c-5.1516.6261-8.8098 1.9352-10.9673 3.9004-5.7131-3.7936-12.2754-4.7535-18.1924-4.4849 1.7388-14.6769 14.3726-26.0078 29.2798-26.0078 7.4395 0 14.5313 2.7539 19.9697 7.7549l1.3535-1.4727c-5.8086-5.3408-13.3818-8.2822-21.3232-8.2822-16.0452 0-29.6204 12.2953-31.3042 28.1501-1.3662.1257-2.6846.3075-3.9374.5275.3705-4.7526 1.6671-9.3032 3.8832-13.5399l-1.7715-.9268c-2.429 4.6414-3.8125 9.6392-4.1427 14.8624-1.4495.3137-2.7725.6633-3.9447 1.009.7442-22.098 18.941-39.8491 41.2173-39.8491 18.5891 0 34.699 12.2698 39.693 30.0176-1.4254-.1812-2.8119-.2811-4.1564-.3099-4.9846-15.4752-19.1714-25.8244-35.5366-25.8244-11.2393 0-21.7822 5.0068-28.9268 13.7373l1.5469 1.2666c6.7637-8.2642 16.7432-13.0039 27.3799-13.0039 15.2756 0 28.5486 9.523 33.4382 23.832-1.3918.0446-2.7312.1633-4.0178.3381-.6858-1.8125-1.5287-3.5666-2.5317-5.2175l-1.709 1.0381c.8689 1.4299 1.61 2.942 2.2251 4.5034-6.8096 1.2861-11.8665 4.0884-14.4517 5.7916-4.4238 2.9155-7.6904 6.4746-7.9443 8.6558-.1426 1.2246.1406 2.2275.8428 2.9814 1.667 1.7915 5.2939 1.6284 9.1309 1.4585 4.4316-.1978 9.0107-.4014 9.7217 2.3213.6797 2.604-1.6104 5.439-4.2627 8.7222-3.2637 4.04-6.9619 8.6191-6.4639 14.4673.8848 10.4209 24.0342 15.9277 25.0195 16.1572l.4531-1.9482c-6.3155-1.4723-22.8467-6.9254-23.4805-14.3786z"/><path d="m25.9155 73.8098 1.4219 1.4063 4.0127-4.0601v6.501h2v-6.5048l4.0527 4.0058 1.4063-1.4229-5.459-5.3957v-2.0003l2.6826 2.6826 1.4141-1.414-4.0967-4.0967v-2.2061l1.7373 1.7373 1.4141-1.414-4.1524-4.1534-4.1523 4.1534 1.414 1.414 1.7393-1.7392v2.206l-4.0986 4.0987 1.414 1.414 2.6846-2.6845v1.9747z"/><path d="m12.0425 57.8209 2.2793 2.2799 1.414-1.414-3.6933-3.6942v-1.7453l1.4219 1.4219 1.414-1.4141-3.8369-3.8369-3.8369 3.8369 1.4141 1.4141 1.4238-1.4238v1.7451l-3.6963 3.6963 1.4141 1.414 2.2822-2.2822v1.5344l-4.9102 4.9676 1.4219 1.4062 3.4883-3.5297v4.7021h2v-4.708l3.5244 3.4834 1.4062-1.4229-4.9306-4.8732z"/><path d="m79.6948 77.554v-4.709l3.5254 3.4843 1.4063-1.4228-4.9317-4.8742v-1.5571l2.2803 2.2799 1.4141-1.414-3.6944-3.694v-1.745l1.4219 1.4219 1.4141-1.4141-3.837-3.8369-3.8369 3.8369 1.4141 1.4141 1.4238-1.4239v1.7453l-3.6953 3.6957 1.4141 1.414 2.2812-2.2816v1.535l-4.9101 4.9668 1.4218 1.4063 3.4883-3.5289v4.7013z"/><path d="m88.0229 56.9954v-4.7089l3.5254 3.4847 1.4063-1.4228-4.9317-4.8746v-1.5574l2.2803 2.2806 1.4141-1.414-3.6944-3.6947v-1.7453l1.4229 1.4229 1.4141-1.4141-3.837-3.8369-3.8369 3.8369 1.4141 1.4141 1.4228-1.4229v1.745l-3.6953 3.695 1.4141 1.414 2.2812-2.2809v1.534l-4.9101 4.9671 1.4219 1.4063 3.4882-3.5294v4.7013z"/><path d="m9.8208 85.298 2.2803 2.2799 1.414-1.4141-3.6943-3.694v-1.7449l1.4219 1.4218 1.414-1.414-3.8369-3.8369-3.8369 3.8369 1.4141 1.414 1.4238-1.4238v1.745l-3.6963 3.6959 1.4141 1.4141 2.2822-2.2819v1.5353l-4.9102 4.9668 1.4219 1.4062 3.4883-3.5289v5.6818h2v-5.6894l3.5244 3.4838 1.4063-1.4219-4.9307-4.8744z"/><path d="m91.6245 84.5421 2.2803 2.2799 1.414-1.414-3.6943-3.694v-1.745l1.4219 1.4219 1.414-1.4141-3.8369-3.8369-3.8369 3.8369 1.4141 1.4141 1.4238-1.4239v1.745l-3.6963 3.696 1.4141 1.414 2.2822-2.2818v1.534l-4.9101 4.968 1.4218 1.4063 3.4883-3.5301v5.6824h2v-5.6883l3.5244 3.4837 1.4063-1.4228-4.9307-4.8737z"/><path d="m46.7446 87.6414 1.2949 1.5234c.9805-.8335 1.8408-1.811 2.5576-2.9048l-1.6738-1.0957c-.6113.9341-1.3447 1.7671-2.1787 2.4771z"/><path d="m35.9136 90.7527-.2402 1.9854c.0693.0083.6436.0747 1.5479.0747 1.9092 0 5.292-.2954 8.4971-2.0532l-.9609-1.7539c-4.1437 2.2719-8.799 1.7509-8.8439 1.747z"/><path d="m53.2388 79.1345 1.3457 1.4805c3.7637-3.4214 6.124-7.6079 7.0137-12.4438l-1.9668-.3623c-.8086 4.3954-2.96 8.206-6.3926 11.3256z"/><path d="m61.9761 63.8264c-.0195-2.5537-.4541-4.231-.4727-4.3013l-1.9346.5083c.0039.0146.3896 1.5249.4072 3.8076z"/><path d="m46.312 54.6936 1.8555-.748c-.0859-.2114-.1553-.4165-.2129-.6152l-1.9219.5547c.0752.2611.168.5307.2793.8085z"/><path d="m46.5806 49.2273c-.4424.707-.708 1.4829-.7891 2.3062l1.9902.1953c.0508-.5127.2168-.9971.4941-1.4399z"/><path d="m50.5386 47.3396-.3223-.9468c-.041.0142-1.0176.3511-2.0293 1.1157l1.2051 1.5957c.7441-.562 1.4648-.8169 1.4727-.8193z"/><path d="m52.6841 30.4124c0-2.5269-2.0557-4.583-4.583-4.583s-4.583 2.0562-4.583 4.583 2.0557 4.583 4.583 4.583 4.583-2.0562 4.583-4.583zm-4.583 2.583c-1.4238 0-2.583-1.1587-2.583-2.583s1.1592-2.583 2.583-2.583 2.583 1.1587 2.583 2.583-1.1592 2.583-2.583 2.583z"/><path d="m47.101 20.862h2v3.329h-2z"/><path d="m40.861 23.836h3.328v2h-3.328z" transform="matrix(.707 .707 -.707 .707 30.017 -22.795)"/><path d="m38.55 29.412h3.329v2h-3.329z"/><path d="m41.525 34.324h2v3.328h-2z" transform="matrix(.707 .707 -.707 .707 37.903 -19.529)"/><path d="m47.101 36.635h2v3.328h-2z"/><path d="m52.014 34.989h3.328v2h-3.328z" transform="matrix(.707 .707 -.707 .707 41.183 -27.418)"/><path d="m54.324 29.412h3.328v2h-3.328z"/><path d="m52.678 23.172h2v3.328h-2z" transform="matrix(-.707 -.707 .707 -.707 74.072 80.353)"/><path d="m8.9116 16.9465c0-2.2007 1.79-3.9907 3.9902-3.9907v-2c-2.0801 0-3.916 1.0659-4.9902 2.6802-1.0742-1.6143-2.9111-2.6802-4.9912-2.6802v2c2.2012 0 3.9912 1.79 3.9912 3.9907z"/><path d="m21.8608 6.1418c0-1.3662 1.1113-2.4775 2.4775-2.4775v-2c-1.4023 0-2.6563.6479-3.4775 1.6602-.8213-1.0122-2.0752-1.6602-3.4775-1.6602v2c1.3662 0 2.4775 1.1113 2.4775 2.4775z"/><path d="m88.4937 16.9465c0-2.2007 1.79-3.9907 3.9902-3.9907v-2c-2.0801 0-3.916 1.0659-4.9902 2.6802-1.0742-1.6143-2.9111-2.6802-4.9912-2.6802v2c2.2012 0 3.9912 1.79 3.9912 3.9907z"/></g></svg>