<svg id="Layer_1" enable-background="new 0 0 98 98" height="512" viewBox="0 0 98 98" width="512" xmlns="http://www.w3.org/2000/svg"><g><path d="m62.1091 70.9072h9.3872v-8.4351h-9.3872zm2-6.435h5.3872v4.4351h-5.3872z"/><path d="m21.186 89.331h1.317v2h-1.317z"/><path d="m20.845 77.196h2v5.771h-2z"/><path d="m20.845 74.587h2v1.287h-2z"/><path d="m17.4314 55.6939c0 2.6074-2.1226 4.7285-4.7314 4.7285v2c3.7119 0 6.7314-3.0186 6.7314-6.7285z"/><path d="m29.4255 60.4092c-.6758-.0513-1.3193-.2417-1.9126-.5674l-.9619 1.7539c.8457.4634 1.7617.7354 2.7241.8076z"/><path d="m22.9724 46.9229h-2c0 .6221-.1187 1.2261-.3525 1.7944l1.8496.7607c.3335-.811.5029-1.6704.5029-2.5551z"/><path d="m25.8708 55.7315-.1621-1.9932c-.4775.0396-.9604.0044-1.4336-.1025l-.4404 1.9512c.4922.1108.9917.1665 1.4922.1665.1812-.0001.3628-.0074.5439-.022z"/><path d="m64.348 90.551h4.185v2h-4.185z"/><path d="m89.3655 58.4722 6.5093-6.5112-15.1011-15.104-5.0816 5.0831-7.4661-7.4674c2.3075-2.3051-8.359 8.3504 22.5672-22.5439l-6.5093-6.5108-15.101 15.104 5.0816 5.0828-7.4524 7.4537c-4.3191-4.32-16.3167-16.3199-22.5535-22.558l-6.5093 6.5107 15.1011 15.104 5.0953-5.0964 7.4525 7.4539c-1.3952 1.3954-21.348 21.3516-22.5674 22.5713l6.5098 6.5107 15.1006-15.104-5.0952-5.0963 6.4663-6.4675v16.4896l-15.1665 15.4121h5.022v18.313h-7.5781v6.8984h-17.6496c-.9279-2.481-1.7102-4.9821-2.3163-7.4526l4.2085-4.2139-4.0493-4.0591-1.4502 1.4492c-.2109-1.6158-.3471-3.2446-.4243-4.8777.9802.7793 2.2209 1.2419 3.5707 1.2419 2.7676 0 5.1074-1.9858 5.6152-4.6382 6.2065-2.0286 6.2651-10.9247.2852-13.1606 1.2369-3.3702-.3221-7.2759-3.7188-8.7891.5527-3.085-1.0669-6.2139-3.9355-7.5508.0055-3.9097-3.205-6.9863-7.0063-6.9863-3.7987 0-7.003 3.0714-6.9985 6.9844-2.8726 1.3306-4.4922 4.4609-3.936 7.5527-3.375 1.5035-4.9604 5.3943-3.7207 8.7822-6.6772 2.437-5.5201 12.7239 1.6826 13.4966.9862 4.257 6.066 5.4497 9.1656 3.0789-.3032 6.3651-1.6503 12.7838-4.0277 19.1424h-11.2591v2h92.5972v-2h-9.2061v-6.8984h-7.5776v-18.313h5.021l-15.1474-15.3998v-16.5016c2.2921 2.2955-7.0005-7.0107 21.5532 21.585zm-17.3545-37.9502 12.2729-12.2749 1.1335 1.1337-3.8771 3.8776 1.4141 1.4141 3.8771-3.8774 1.1337 1.1338-6.9865 6.9875-.0135-.0134-5.2864 5.2874zm-19.1607 8.7642-12.2729-12.2749 1.0658-1.0659 3.5665 3.5669 1.4141-1.4141-3.5666-3.567 1.2014-1.2015 12.2729 12.2749zm-3.5097 31.4394-1.066-1.0659 3.5665-3.5669-1.4141-1.4141-3.5665 3.5669-1.2016-1.2017 12.2729-12.2749 3.6812 3.6816zm-39.2417 10.0039-.0864-.9028-.9067-.002c-5.8432-.0137-6.7674-8.1714-1.5109-9.7483.9848 1.1499 2.3143 1.931 3.8151 2.2224l.3809-1.9639c-1.2105-.2347-2.2621-.9252-2.9715-1.9412-1.4992-2.5741-.3974-5.8944 2.3206-7.0804 1.1483 1.3348 2.7675 2.1681 4.543 2.3146 1.9828.1644 3.9689-.5441 5.4092-2.0405l-1.4414-1.3867c-.9902 1.0298-2.3774 1.5581-3.8032 1.4341-1.3928-.1152-2.6464-.8345-3.4586-1.9728-.746-2.5396.6487-5.2533 3.1857-6.1039l.7617-.2554-.0854-.7993c-.3285-3.081 2.1014-5.5405 4.9683-5.5405 2.8782 0 5.305 2.4729 4.9761 5.5405l-.0854.7969.7588.2568c4.6274 1.5661 4.193 8.4352.0415 9.9214l.6738 1.8828c1.851-.6625 3.2985-2.1138 3.9995-3.913 2.541 1.3009 3.4893 4.4993 2.0293 6.9725l-.0733.1243c-.7081.9268-1.7366 1.5841-2.8793 1.7971l.3662 1.9658c1.4926-.2776 2.8608-1.0757 3.8544-2.2225 4.6873 1.4625 4.6117 8.4493-.4169 9.6044l-.728.1675-.0459.7456c-.1206 1.9541-1.7505 3.4849-3.7104 3.4849-3.8085 0-3.7712-4.1631-3.8154-4.2632h-.9087c-2.2553 0-3.469-1.4424-3.6479-1.5586h-.7773l-.2871.2632c-1.2418 1.14-2.5651 1.1969-2.9814 1.3306l-.0464.75c-.2805 4.525-6.9846 4.6435-7.4166.1196zm5.4292 23.2705c.3218-.8887.6196-1.7788.9025-2.6694h3.5756v-2h-2.9852c1.6973-5.9666 2.5266-11.9617 2.4595-17.8987.6218-.2144 1.2098-.5105 1.7424-.887.9214.6528 1.9893 1.0654 3.1207 1.214-.0168 3.4232.2474 6.865.8036 10.2396l.3169 1.9209 2.8169-2.8149 1.2251 1.228-3.5864 3.5918.1279.542c.5879 2.4951 1.3447 5.0229 2.2539 7.5337zm42.1396-13.896h3.687v2.5244h-3.687zm14.583 0h3.688v2.5244h-3.688zm-2 6.9976h-6.896v-8.5342c0-1.9014 1.5469-3.4482 3.4482-3.4482 1.9009 0 3.4478 1.5469 3.4478 3.4482zm-12.583-2.4732h3.687v2.4731h-3.687zm25.8487 4.4732v4.8984h-33.4268v-1.4492h10.8779v-2h-10.8779v-1.4492h5.5781 5.687 10.896 5.688zm-11.2657-2v-2.4731h3.688v2.4731zm3.688-20.313v11.3154h-3.7115c-.2363-2.7878-2.5767-4.9849-5.4243-4.9849-2.848 0-5.1884 2.197-5.4247 4.9849h-3.7105v-11.3154h-2.2476l11.3862-11.5708 11.3809 11.5708zm4.835-27.1025 12.2729 12.2749-1.1336 1.1339-3.8771-3.8776-1.4141 1.4141 3.8773 3.8777-1.1337 1.134-6.9863-6.9873.0136-.0137-5.2866-5.2876z"/><path d="m47.336 21.14h3.829v2h-3.829z" transform="matrix(.707 .707 -.707 .707 30.08 -28.341)"/><path d="m82.585 45.799h3.238v2h-3.238z" transform="matrix(.707 .707 -.707 .707 57.764 -45.837)"/><path d="m53.468 50.137h2v3.829h-2z" transform="matrix(-.707 -.707 .707 -.707 56.177 127.371)"/><path d="m77.502 16.092h3.238v2h-3.238z" transform="matrix(.707 -.707 .707 .707 11.093 60.961)"/><path d="m10.4026 7.2841c-1.1765-1.9003-3.2747-3.1732-5.6699-3.1732v2c2.5752 0 4.6699 2.0938 4.6699 4.667h2c0-2.5732 2.0947-4.667 4.6699-4.667v-2c-2.3953 0-4.4935 1.2729-5.6699 3.1732z"/><path d="m13.6189 22.335c1.8154 0 3.292 1.4761 3.292 3.29h2c0-1.814 1.4771-3.29 3.2925-3.29v-2c-1.7704 0-3.3312.8811-4.2925 2.2194-.9612-1.3383-2.5219-2.2194-4.292-2.2194z"/><path d="m28.7004 12.4302h2c0-1.814 1.4766-3.29 3.292-3.29v-2c-1.7701 0-3.3307.8811-4.292 2.2194-.9612-1.3383-2.5219-2.2194-4.292-2.2194v2c1.8155 0 3.292 1.476 3.292 3.29z"/><path d="m58.1882 11.3511c0 2.2231 1.8091 4.0317 4.0322 4.0317s4.0322-1.8086 4.0322-4.0317c0-2.2227-1.8091-4.0313-4.0322-4.0313s-4.0322 1.8086-4.0322 4.0313zm4.0323-2.0313c1.1206 0 2.0322.9111 2.0322 2.0313s-.9116 2.0317-2.0322 2.0317-2.0322-.9116-2.0322-2.0317.9116-2.0313 2.0322-2.0313z"/><path d="m61.221 2h2v3.167h-2z"/><path d="m55.142 4.859h3.168v2h-3.168z" transform="matrix(-.707 -.707 .707 -.707 92.7 50.109)"/><path d="m52.867 10.351h3.168v2h-3.168z"/><path d="m55.726 15.26h2v3.168h-2z" transform="matrix(-.707 -.707 .707 -.707 84.928 68.866)"/><path d="m61.221 17.535h2v3.167h-2z"/><path d="m66.131 15.844h3.168v2h-3.168z" transform="matrix(-.707 -.707 .707 -.707 103.699 76.628)"/><path d="m68.406 10.351h3.168v2h-3.168z"/><path d="m66.715 4.275h2v3.168h-2z" transform="matrix(-.707 -.707 .707 -.707 111.453 57.883)"/></g></svg>